<svg aria-hidden="true" style="position: absolute; width: 0; height: 0; overflow: hidden;" version="1.1" xmlns="http://www.w3.org/2000/svg" xmlns:xlink="http://www.w3.org/1999/xlink">
<defs>
<symbol id="icon-twit" viewBox="0 0 96 96">
<path  d="M48 96c26.51 0 48-21.49 48-48s-21.49-48-48-48c-26.51 0-48 21.49-48 48s21.49 48 48 48z"></path>
<path fill="#243146" style="fill: var(--color2, #243146)" d="M67.2 38.197c-1.413 0.618-2.931 1.033-4.525 1.221 1.627-0.959 2.877-2.479 3.464-4.29-1.521 0.888-3.208 1.534-5.003 1.882-1.435-1.507-3.485-2.449-5.75-2.449-5.086 0-8.824 4.672-7.675 9.521-6.546-0.323-12.35-3.41-16.237-8.102-2.064 3.486-1.070 8.045 2.437 10.355-1.29-0.041-2.506-0.389-3.567-0.97-0.086 3.593 2.53 6.954 6.318 7.702-1.109 0.296-2.323 0.365-3.558 0.132 1.001 3.081 3.91 5.322 7.36 5.385-3.312 2.556-7.485 3.698-11.664 3.213 3.486 2.2 7.629 3.484 12.077 3.484 14.627 0 22.891-12.161 22.392-23.068 1.539-1.094 2.875-2.46 3.931-4.015z"></path>
</symbol>
<symbol id="icon-youtube" viewBox="0 0 96 96">
<path  d="M48 96c26.51 0 48-21.49 48-48s-21.49-48-48-48c-26.51 0-48 21.49-48 48s21.49 48 48 48z"></path>
<path fill="#243146" style="fill: var(--color2, #243146)" d="M62.621 31.073c-6.92-0.472-22.332-0.47-29.242 0-7.482 0.511-8.364 5.030-8.419 16.927 0.056 11.875 0.929 16.414 8.419 16.927 6.912 0.47 22.322 0.472 29.242 0 7.482-0.511 8.364-5.030 8.419-16.927-0.056-11.875-0.929-16.414-8.419-16.927zM42.24 55.68v-15.36l15.36 7.667-15.36 7.693z"></path>
</symbol>
<symbol id="icon-d-arrow-right" viewBox="0 0 250 96">
<path d="M9.6 41.76c-3.446 0-6.24 2.794-6.24 6.24s2.794 6.24 6.24 6.24v-12.48zM158.012 52.412c2.437-2.437 2.437-6.388 0-8.825l-39.711-39.711c-2.436-2.437-6.388-2.437-8.824 0s-2.436 6.388 0 8.825l35.299 35.299-35.299 35.299c-2.436 2.437-2.436 6.388 0 8.825s6.388 2.437 8.824 0l39.711-39.711zM9.6 54.24h144v-12.48h-144v12.48z"></path>
<path d="M96 41.76c-3.446 0-6.24 2.794-6.24 6.24s2.794 6.24 6.24 6.24v-12.48zM244.412 52.412c2.437-2.437 2.437-6.388 0-8.825l-39.711-39.711c-2.436-2.437-6.388-2.437-8.824 0s-2.436 6.388 0 8.825l35.299 35.299-35.299 35.299c-2.436 2.437-2.436 6.388 0 8.825s6.388 2.437 8.824 0l39.711-39.711zM96 54.24h144v-12.48h-144v12.48z"></path>
</symbol>
<symbol id="icon-plus" viewBox="0 0 96 96">
<path d="M42.667 5.333c0-2.946 2.388-5.333 5.333-5.333v0c2.946 0 5.333 2.388 5.333 5.333v85.333c0 2.946-2.388 5.333-5.333 5.333v0c-2.946 0-5.333-2.388-5.333-5.333v-85.333z"></path>
<path d="M0 48c0-2.946 2.388-5.333 5.333-5.333h85.333c2.946 0 5.333 2.388 5.333 5.333v0c0 2.946-2.388 5.333-5.333 5.333h-85.333c-2.946 0-5.333-2.388-5.333-5.333v0z"></path>
</symbol>
<symbol id="icon-close" viewBox="0 0 96 96">
<path stroke-linejoin="round" stroke-linecap="round" stroke-miterlimit="4" stroke-width="7.2" d="M72 24l-48 48"></path>
<path stroke-linejoin="round" stroke-linecap="round" stroke-miterlimit="4" stroke-width="7.2" d="M24 24l48 48"></path>
</symbol>
<symbol id="icon-burger" viewBox="0 0 140 96">
<path stroke-linejoin="round" stroke-linecap="round" stroke-miterlimit="4" stroke-width="13.0909" d="M5.881 87.461h128.895M5.881 46.845h128.895M5.881 6.23h128.895"></path>
</symbol>
</defs>
</svg>
